HIERARCHY
ROOT SimulationBone
{
	OFFSET 0.000000 0.000000 0.000000
	CHANNELS 6 Xposition Yposition Zposition Zrotation Yrotation Xrotation 
	JOINT Hips
	{
		OFFSET 0.000000 0.000000 0.000000
		CHANNELS 6 Xposition Yposition Zposition Zrotation Yrotation Xrotation 
		JOINT RightUpLeg
		{
			OFFSET 0.103458 1.857831 10.548500
			CHANNELS 3 Zrotation Yrotation Xrotation
			JOINT RightLeg
			{
				OFFSET 43.500000 -0.000027 -0.000013
				CHANNELS 3 Zrotation Yrotation Xrotation
				JOINT RightFoot
				{
					OFFSET 42.372196 0.000031 0.000011
					CHANNELS 3 Zrotation Yrotation Xrotation
					JOINT RightToe
					{
						OFFSET 17.299994 -0.000003 -0.000004
						CHANNELS 3 Zrotation Yrotation Xrotation
						End Site
						{
							OFFSET 0.000000 0.000000 0.000000
						}
					}
				}
			}
		}
		JOINT LeftUpLeg
		{
			OFFSET 0.103455 1.857826 -10.548502
			CHANNELS 3 Zrotation Yrotation Xrotation
			JOINT LeftLeg
			{
				OFFSET 43.500038 -0.000023 0.000010
				CHANNELS 3 Zrotation Yrotation Xrotation
				JOINT LeftFoot
				{
					OFFSET 42.372261 0.000004 0.000006
					CHANNELS 3 Zrotation Yrotation Xrotation
					JOINT LeftToe
					{
						OFFSET 17.299988 -0.000008 0.000010
						CHANNELS 3 Zrotation Yrotation Xrotation
						End Site
						{
							OFFSET 0.000000 0.000000 0.000000
						}
					}
				}
			}
		}
		JOINT Spine
		{
			OFFSET 6.901968 -2.603722 -0.000004
			CHANNELS 3 Zrotation Yrotation Xrotation
			JOINT Spine1
			{
				OFFSET 12.588099 -0.000002 0.000005
				CHANNELS 3 Zrotation Yrotation Xrotation
				JOINT Spine2
				{
					OFFSET 12.343202 -0.000017 -0.000005
					CHANNELS 3 Zrotation Yrotation Xrotation
					JOINT Neck
					{
						OFFSET 25.832903 0.000008 0.000008
						CHANNELS 3 Zrotation Yrotation Xrotation
						JOINT Head
						{
							OFFSET 11.766607 0.000004 -0.000001
							CHANNELS 3 Zrotation Yrotation Xrotation
							End Site
							{
								OFFSET 0.000000 0.000000 0.000000
							}
						}
					}
					JOINT RightShoulder
					{
						OFFSET 19.745907 -1.480366 6.000107
						CHANNELS 3 Zrotation Yrotation Xrotation
						JOINT RightArm
						{
							OFFSET 11.284126 -0.000031 -0.000025
							CHANNELS 3 Zrotation Yrotation Xrotation
							JOINT RightForeArm
							{
								OFFSET 33.000050 0.000011 0.000029
								CHANNELS 3 Zrotation Yrotation Xrotation
								JOINT RightHand
								{
									OFFSET 25.200008 0.000009 0.000011
									CHANNELS 3 Zrotation Yrotation Xrotation
									End Site
									{
										OFFSET 0.000000 0.000000 0.000000
									}
								}
							}
						}
					}
					JOINT LeftShoulder
					{
						OFFSET 19.746094 -1.480364 -6.000070
						CHANNELS 3 Zrotation Yrotation Xrotation
						JOINT LeftArm
						{
							OFFSET 11.284145 -0.000017 -0.000020
							CHANNELS 3 Zrotation Yrotation Xrotation
							JOINT LeftForeArm
							{
								OFFSET 33.000088 0.000019 0.000022
								CHANNELS 3 Zrotation Yrotation Xrotation
								JOINT LeftHand
								{
									OFFSET 25.199780 0.000137 0.000414
									CHANNELS 3 Zrotation Yrotation Xrotation
									End Site
									{
										OFFSET 0.000000 0.000000 0.000000
									}
								}
							}
						}
					}
				}
			}
		}
	}
}
MOTION
Frames: 6
Frame Time: 0.016667
-121.251885 0.000000 479.338337 0.000000 -75.242933 0.000000 4.842498 83.407059 -1.484360 106.896194 -3.204963 -179.608000 165.793143 4.196307 174.073641 -55.479761 -2.431874 -4.929033 92.780626 3.557366 0.943289 21.454560 0.003118 0.000017 162.968191 11.080306 -168.212656 -57.562122 -4.219019 0.074900 91.259652 0.992405 6.225414 21.454553 -0.003088 0.000002 9.699904 -0.032038 -0.019543 9.386967 -0.062325 -0.041627 9.068867 -0.062724 -0.041247 16.277734 -2.744856 1.085603 -6.210989 -3.104692 1.577011 139.035013 -80.324247 40.034880 40.746059 37.614483 63.618464 -71.249199 -12.610195 2.413012 5.435119 -10.223184 22.608421 -168.090900 76.988050 13.588817 13.298532 -33.081074 -30.392432 -106.206900 -3.055426 -2.811634 9.355677 -0.762272 -6.276776 
-121.127880 0.000000 481.799787 0.000000 -74.831179 0.000000 5.560144 80.744855 -1.008180 106.884417 -1.812612 -178.139396 163.217473 4.002387 174.063129 -64.292965 0.694558 -6.379290 97.434437 4.325289 -0.236590 21.454557 0.003108 0.000018 162.388489 9.170128 -167.579174 -64.328367 -4.768959 1.924398 97.129654 -0.521472 6.776199 21.454550 -0.003081 0.000003 9.767392 0.359506 -0.127028 9.521429 0.728275 -0.224043 9.203307 0.726759 -0.228443 14.505138 -1.721322 1.443693 -6.607992 -5.478829 2.692052 151.415275 -76.485053 27.765405 36.209866 38.278194 59.198964 -68.620480 -16.585102 2.463237 4.822361 -7.912348 20.094286 -168.648514 73.315755 13.013606 9.418438 -31.645152 -24.671067 -102.015564 -3.802721 -1.882249 8.696605 -5.040422 -6.539662 
-120.927202 0.000000 484.328320 0.000000 -74.346958 0.000000 6.065181 78.844299 -0.765225 107.215894 -0.620476 -177.855119 162.800578 3.708213 174.823063 -70.335245 2.022924 -7.719868 101.580901 5.009381 -1.739381 21.454557 0.003103 0.000016 162.754037 6.863208 -168.482093 -69.011575 -4.816097 3.739483 101.267307 -1.896084 7.807253 21.454551 -0.003082 0.000002 9.749818 0.632766 0.020766 9.487876 1.261745 0.093355 9.169699 1.262136 0.085724 15.532132 -1.006237 1.653182 -6.755211 -6.015313 3.182740 157.750512 -73.687191 21.474273 29.869110 41.752478 54.280585 -59.778142 -18.946438 2.392423 6.077953 -8.739961 15.074272 -169.845111 71.299782 11.776194 4.720339 -33.080098 -25.237872 -93.032107 0.746793 -2.492145 9.061045 -3.137897 -8.715999 
-120.654557 0.000000 486.918517 0.000000 -73.793333 0.000000 6.342960 77.753285 -0.708431 107.565328 0.131918 -178.464307 163.333736 3.595606 175.690725 -74.363488 2.315639 -8.692466 103.440364 5.595279 -3.061338 21.454557 0.003102 0.000014 163.884794 4.832914 -170.159181 -71.700859 -4.705151 5.222977 103.964065 -3.012358 9.038745 21.454553 -0.003088 0.000001 9.684783 0.756737 0.305172 9.361845 1.486361 0.670611 9.043659 1.490237 0.661614 17.465216 -0.709304 1.854932 -6.612602 -5.553224 3.325525 161.501211 -71.931311 17.726992 22.671562 46.663148 48.275551 -48.673163 -19.952589 2.087069 8.785687 -11.273408 8.697127 -171.941415 70.464734 9.607706 -0.214787 -36.618368 -28.321582 -82.115346 7.777388 -2.877989 9.527913 2.141674 -11.527923 
-120.314655 0.000000 489.564953 0.000000 -73.173298 0.000000 6.378518 77.519707 -0.793072 107.643658 0.198082 -179.691212 163.620023 3.962601 176.016406 -77.170058 2.272583 -9.298925 101.253100 5.966869 -3.729618 21.454558 0.003103 0.000014 165.514540 3.757407 -171.816018 -72.502402 -4.775195 6.131349 105.525909 -3.706479 10.172751 21.454555 -0.003093 0.000000 9.607836 0.700385 0.608155 9.210942 1.350196 1.270175 8.892833 1.357700 1.261995 18.412443 -0.928189 2.134560 -6.173310 -4.926582 3.414205 163.436700 -71.101153 15.780661 16.084089 51.858087 41.222421 -39.627944 -19.824802 1.790137 12.363138 -14.181202 2.112255 -175.275208 70.306952 6.162266 -4.687431 -40.983951 -30.357516 -72.153168 14.047408 -2.514582 9.402601 7.918640 -13.774383 
-119.912202 0.000000 492.262209 0.000000 -72.489768 0.000000 6.177224 78.118993 -0.964512 107.292071 -0.528709 178.799405 162.727581 4.962744 175.373441 -79.490117 2.392075 -9.706325 94.167075 6.163541 -3.377104 21.454558 0.003106 0.000017 167.385485 4.023521 -172.732860 -71.588707 -5.207122 6.310287 106.230598 -3.863086 10.946327 21.454554 -0.003095 -0.000000 9.547305 0.466704 0.833777 9.088492 0.866539 1.701622 8.770498 0.876664 1.696359 17.090657 -1.637092 2.554710 -5.541129 -4.832157 3.686034 163.719734 -71.026993 15.493310 11.774302 56.570003 34.445869 -35.878450 -19.021388 1.645928 15.786228 -16.514781 -3.268729 -179.746038 70.332490 1.545235 -8.571620 -44.699400 -28.802444 -65.693709 17.175295 -2.283539 8.625162 11.779979 -14.568783 
